<?xml version="1.0" standalone="no"?>
<!DOCTYPE svg PUBLIC "-//W3C//DTD SVG 20010904//EN" "http://www.w3.org/TR/2001/REC-SVG-20010904/DTD/svg10.dtd">
<svg version="1.0" xmlns="http://www.w3.org/2000/svg" width="200" height="60"
    viewBox="0 0 1024.000000 300.000000" preserveAspectRatio="xMidYMid meet">

    <g transform="translate(0.000000,300.000000) scale(0.100000,-0.100000)" fill="#000000" stroke="none">
        <path d="M7995 2848 c-38 -13 -189 -79 -275 -121 -167 -80 -360 -221 -430
-313 -43 -57 -60 -85 -60 -98 0 -8 -4 -17 -9 -21 -11 -6 -26 -93 -18 -101 2
-3 17 16 32 43 39 66 127 152 215 211 72 48 317 172 339 172 6 0 30 9 54 19
37 17 93 36 302 101 33 10 116 32 185 49 69 16 161 39 205 50 l80 19 -66 1
c-58 1 -118 -6 -344 -40 -67 -9 -173 -30 -284 -54 -40 -9 -76 -14 -79 -11 -2
3 37 26 88 51 112 54 128 65 65 43z" />
        <path d="M8580 2714 c-19 -2 -75 -8 -125 -14 -49 -5 -152 -25 -228 -45 -135
-34 -330 -95 -324 -101 2 -2 45 6 97 17 211 44 291 53 505 53 229 1 288 -9
193 -33 -125 -32 -273 -87 -405 -153 -79 -39 -143 -75 -143 -80 0 -9 19 -7
130 12 315 55 692 32 980 -60 100 -32 119 -40 241 -100 235 -118 467 -329 620
-565 23 -36 46 -65 51 -65 9 0 3 40 -12 75 -62 148 -83 192 -125 263 -109 182
-309 353 -539 461 -139 64 -364 122 -556 141 -199 20 -199 20 -75 45 118 25
365 101 365 114 0 4 -105 13 -232 20 -346 18 -380 19 -418 15z" />
        <path d="M925 2442 c-68 -24 -99 -55 -265 -262 -19 -24 -52 -64 -74 -89 -21
-25 -47 -56 -57 -69 -10 -12 -19 -26 -19 -31 0 -5 -3 -11 -8 -13 -4 -1 -28
-28 -52 -58 -25 -30 -61 -73 -80 -95 -19 -22 -48 -58 -65 -79 -16 -22 -62 -78
-101 -125 -84 -103 -114 -145 -114 -161 0 -7 11 -23 26 -36 23 -22 33 -24 145
-24 66 0 128 4 138 9 9 6 48 48 85 95 l68 86 278 0 c210 0 280 -3 287 -12 5
-7 17 -39 26 -72 30 -107 28 -106 174 -106 116 0 129 2 150 22 l23 22 20 -22
c19 -20 31 -22 126 -22 58 0 114 5 125 10 26 14 48 60 64 133 7 34 24 100 38
147 26 88 71 253 88 328 20 80 15 88 258 -409 40 -81 86 -159 102 -175 30 -29
32 -29 165 -32 147 -4 178 2 227 47 38 34 60 84 92 206 15 55 40 150 56 210
43 156 96 357 119 448 32 120 14 137 -137 137 -149 0 -137 17 -228 -325 -7
-27 -23 -84 -34 -125 -12 -41 -29 -106 -39 -144 -9 -38 -22 -71 -27 -73 -11
-3 -135 241 -135 265 0 6 -4 12 -10 12 -5 0 -10 6 -10 13 0 9 -72 156 -153
312 -26 51 -53 60 -199 63 -124 4 -142 2 -182 -17 -72 -35 -110 -110 -147
-289 -5 -24 -11 -47 -13 -50 -4 -7 -22 -72 -87 -322 -44 -167 -70 -250 -79
-250 -5 0 -16 26 -24 58 -9 31 -21 73 -26 92 -28 102 -54 190 -70 235 -9 28
-27 88 -38 135 -70 277 -96 348 -145 382 -28 20 -45 23 -137 25 -58 1 -114 -1
-125 -5z m242 -39 c39 -26 61 -78 106 -253 25 -96 39 -145 96 -345 18 -60 39
-135 48 -165 8 -30 21 -75 29 -99 32 -102 15 -120 -116 -120 -51 1 -103 5
-115 9 -16 6 -27 28 -44 87 -13 43 -27 84 -33 91 -8 9 -81 12 -303 12 l-293 0
-71 -89 c-82 -102 -98 -111 -212 -111 -124 0 -151 20 -111 82 17 26 160 204
185 230 7 7 28 33 47 58 19 25 39 50 45 56 5 6 39 48 75 94 36 46 74 93 85
104 11 12 36 41 55 66 19 25 40 51 48 58 7 8 25 30 39 50 49 66 132 154 166
178 19 12 49 25 68 27 60 9 180 -3 206 -20z m916 18 c52 -9 107 -51 107 -83 0
-10 5 -18 10 -18 6 0 10 -5 10 -11 0 -7 63 -139 139 -295 77 -155 142 -292
146 -303 9 -29 24 -26 31 7 3 15 8 34 11 42 3 8 11 38 18 65 117 449 142 541
154 564 17 31 51 41 136 41 56 0 78 -4 96 -18 l22 -19 -22 -84 c-12 -46 -28
-109 -36 -139 -7 -30 -25 -95 -38 -145 -24 -88 -52 -191 -103 -385 -29 -105
-41 -133 -78 -172 -33 -34 -75 -43 -208 -43 -91 0 -111 3 -135 20 -20 15 -67
98 -165 295 -75 151 -150 306 -167 343 -32 73 -51 82 -62 31 -4 -16 -16 -65
-28 -109 -51 -184 -83 -302 -91 -335 -60 -248 -62 -250 -184 -250 -67 0 -88 4
-107 19 l-23 19 18 73 c10 41 31 119 46 174 16 55 52 190 80 300 29 110 57
216 62 235 19 66 60 141 86 158 39 25 186 38 275 23z" />
        <path d="M935 2388 c-43 -15 -82 -55 -213 -218 -64 -80 -123 -152 -132 -160
-8 -8 -34 -40 -57 -70 -23 -30 -71 -91 -108 -135 -115 -140 -122 -148 -194
-237 -39 -48 -71 -94 -71 -102 0 -13 15 -16 94 -16 52 0 101 3 110 6 8 3 48
46 87 95 l72 89 318 0 317 0 21 -67 c12 -36 21 -72 21 -79 0 -33 30 -44 126
-44 77 0 96 3 101 16 6 17 -9 83 -57 244 -17 58 -47 161 -66 230 -18 69 -39
143 -45 165 -7 22 -16 54 -20 70 -60 214 -64 219 -187 222 -48 1 -100 -3 -117
-9z m75 -192 c0 -3 11 -47 25 -98 38 -137 75 -281 75 -290 0 -5 -99 -8 -220
-8 -121 0 -220 4 -220 9 0 9 86 121 205 266 44 53 84 103 90 111 9 13 45 20
45 10z" />
        <path d="M955 2133 c-11 -14 -58 -73 -105 -131 -47 -57 -95 -118 -108 -136
l-22 -31 172 -3 c94 -1 175 1 180 6 4 4 -6 55 -23 112 -17 58 -36 129 -41 158
-11 58 -24 65 -53 25z m31 -60 c3 -16 17 -66 30 -113 13 -46 24 -90 24 -97 0
-10 -31 -13 -136 -13 l-135 0 23 33 c12 17 28 39 35 47 6 8 40 50 74 93 34 42
66 77 71 77 4 0 10 -12 14 -27z" />
        <path d="M1844 2386 c-61 -27 -70 -49 -174 -446 -23 -85 -45 -168 -49 -185 -5
-16 -19 -68 -31 -115 -12 -47 -26 -95 -31 -108 -5 -13 -9 -36 -9 -52 l0 -30
94 0 c109 0 100 -10 140 150 13 52 34 131 46 175 70 254 91 333 96 360 7 38
29 69 44 60 6 -3 90 -167 188 -362 205 -411 179 -383 342 -383 115 0 169 19
194 69 9 16 34 98 57 182 23 85 58 217 79 294 67 245 100 375 100 390 0 12
-17 15 -90 15 -110 0 -105 6 -155 -185 -20 -77 -57 -214 -82 -305 -24 -91 -48
-179 -52 -196 -5 -18 -11 -37 -15 -43 -14 -22 -41 -11 -55 22 -7 17 -26 57
-41 87 -35 68 -109 218 -208 418 -98 200 -101 202 -248 202 -69 -1 -120 -6
-140 -14z" />
        <path d="M3292 2430 c-131 -33 -223 -111 -284 -241 -38 -80 -52 -122 -63 -183
-3 -21 -12 -52 -20 -70 -29 -68 -58 -227 -53 -295 8 -108 49 -170 143 -213 49
-23 57 -23 450 -26 l400 -3 24 25 c27 28 74 181 66 213 -3 13 -17 31 -32 40
-24 16 -65 19 -371 23 -377 5 -373 5 -358 63 l6 27 370 0 c265 0 376 3 395 12
32 14 57 62 75 141 16 67 5 102 -36 117 -16 6 -162 10 -366 10 -187 -1 -342 1
-345 3 -2 3 1 16 8 30 23 51 72 57 434 57 203 0 334 4 345 10 26 14 40 42 61
125 24 90 24 110 -1 135 -19 19 -33 20 -397 19 -332 0 -387 -3 -451 -19z m808
-9 c31 -9 36 -31 19 -100 -18 -79 -36 -119 -58 -131 -13 -6 -141 -10 -348 -10
-194 0 -343 -4 -365 -10 -43 -12 -98 -73 -98 -107 l0 -23 368 0 c294 0 372 -3
387 -14 17 -12 17 -18 7 -71 -7 -32 -20 -75 -30 -94 l-17 -36 -391 -3 -392 -2
-6 -23 c-12 -47 -6 -94 15 -113 20 -18 42 -19 371 -20 288 -1 352 -3 359 -15
12 -17 4 -63 -24 -148 -20 -60 -25 -66 -55 -72 -19 -4 -172 -7 -340 -8 -402
-2 -491 12 -556 89 -14 17 -31 50 -37 73 -13 49 -5 177 15 246 8 25 22 75 31
111 29 110 76 243 102 287 38 66 122 136 194 163 49 19 92 26 184 30 170 9
635 9 665 1z" />
        <path d="M3335 2386 c-122 -25 -187 -67 -246 -159 -39 -59 -47 -81 -93 -242
-55 -189 -68 -252 -68 -322 0 -121 36 -166 160 -198 76 -20 754 -22 769 -2 15
19 46 154 38 166 -4 8 -112 11 -333 12 -235 0 -337 4 -362 13 -49 17 -63 51
-53 123 l8 58 390 5 c215 3 395 8 402 13 13 8 43 103 43 136 0 21 -1 21 -377
21 -208 0 -384 4 -391 9 -17 10 19 109 51 138 52 48 53 48 422 51 204 2 354 7
360 13 13 13 55 161 49 171 -9 13 -701 8 -769 -6z" />
        <path d="M4236 2428 c-18 -16 -32 -47 -46 -103 -11 -44 -24 -89 -29 -100 -5
-11 -19 -63 -31 -115 -12 -52 -28 -115 -35 -140 -21 -71 -42 -147 -69 -255
-13 -55 -34 -133 -45 -173 -19 -66 -20 -75 -6 -101 19 -38 30 -41 151 -41 98
0 107 2 129 24 13 13 27 37 30 53 4 15 15 56 25 90 10 34 27 98 37 143 15 69
22 82 41 87 39 9 199 -2 216 -16 8 -7 27 -38 42 -70 14 -31 31 -65 37 -76 6
-11 31 -58 55 -105 75 -142 44 -130 338 -130 139 0 259 3 268 6 8 3 45 44 82
90 37 46 76 87 88 89 12 3 140 4 286 3 l265 -3 25 -76 c37 -113 31 -109 180
-109 115 0 129 2 146 21 20 22 22 77 5 132 -19 57 -112 386 -142 497 -22 84
-56 202 -69 240 -5 14 -11 37 -14 51 -3 15 -22 43 -41 62 -42 42 -85 52 -209
45 -119 -6 -143 -24 -312 -238 -38 -47 -75 -92 -84 -100 -8 -8 -47 -56 -87
-106 -39 -50 -78 -100 -86 -110 -9 -10 -46 -57 -83 -104 -38 -47 -75 -92 -84
-100 -9 -8 -27 -31 -40 -50 -37 -52 -70 -84 -80 -74 -5 5 -43 77 -86 159 -42
83 -83 159 -91 170 -7 11 -13 25 -13 31 0 7 48 59 108 117 59 58 155 152 215
209 59 58 107 113 107 122 0 21 -19 58 -34 68 -6 4 -66 8 -133 8 -143 0 -106
22 -333 -201 -85 -84 -168 -160 -185 -171 -38 -23 -195 -27 -195 -5 0 7 16 75
35 150 41 158 42 180 15 207 -18 18 -33 20 -129 20 -100 0 -112 -2 -135 -22z
m247 -15 c10 -6 9 -77 -2 -105 -10 -24 -71 -250 -71 -262 0 -10 216 -7 243 3
14 5 107 91 208 190 l184 180 73 7 c89 8 162 1 173 -17 22 -35 13 -46 -132
-184 -41 -38 -126 -119 -188 -179 l-114 -108 28 -52 c16 -28 50 -91 75 -141
102 -196 123 -235 130 -235 9 0 100 108 240 284 8 10 43 52 78 92 34 40 62 77
62 82 0 6 3 12 8 14 4 2 28 28 52 58 25 30 47 57 50 60 3 3 44 52 90 110 117
145 127 155 171 186 36 25 48 27 137 28 101 0 130 -8 164 -47 15 -17 62 -156
98 -287 5 -19 17 -62 26 -95 9 -33 20 -73 25 -90 4 -16 21 -79 39 -140 90
-319 88 -305 61 -326 -19 -16 -40 -19 -115 -19 -135 0 -134 0 -176 158 l-11
42 -304 0 c-286 0 -305 -1 -314 -19 -6 -10 -25 -36 -43 -58 -18 -23 -42 -53
-52 -68 -38 -51 -53 -54 -303 -52 -173 2 -234 5 -246 15 -9 7 -53 86 -98 175
-45 89 -91 172 -102 185 -20 22 -27 22 -151 20 l-130 -3 -8 -30 c-34 -140 -73
-277 -88 -312 -23 -50 -51 -58 -161 -51 -79 6 -103 20 -96 57 6 29 89 339 111
416 31 107 57 201 62 230 3 17 14 59 24 95 55 195 54 192 95 203 22 6 185 -2
198 -10z" />
        <path d="M4262 2373 c-12 -30 -60 -205 -72 -263 -5 -19 -15 -61 -24 -92 -9
-32 -22 -82 -30 -110 -8 -29 -26 -96 -41 -148 -56 -207 -75 -281 -75 -295 0
-12 17 -15 94 -15 63 0 97 4 103 13 11 14 37 101 62 207 10 41 26 99 35 128
l18 53 144 -3 c140 -3 145 -4 168 -29 13 -14 61 -101 108 -195 l85 -169 109 0
c104 0 109 1 112 22 3 21 -16 66 -65 153 -14 25 -43 81 -66 125 -22 44 -55
102 -74 128 -18 26 -31 52 -27 58 5 9 173 173 248 243 111 103 196 191 196
202 0 17 -180 20 -212 3 -11 -6 -86 -76 -166 -156 -81 -80 -166 -161 -190
-181 l-44 -36 -140 -4 -140 -5 4 34 c3 19 22 97 43 174 21 77 38 149 39 160 1
19 -6 20 -95 23 l-96 3 -11 -28z" />
        <path d="M5884 2389 c-34 -10 -97 -74 -214 -218 -41 -51 -83 -103 -93 -115
-10 -11 -31 -36 -45 -55 -15 -19 -37 -45 -49 -59 -13 -14 -23 -28 -23 -31 0
-3 -18 -26 -40 -50 -22 -24 -40 -46 -40 -50 0 -3 -15 -22 -33 -41 -18 -19 -52
-60 -77 -90 -25 -30 -51 -61 -57 -68 -7 -7 -13 -16 -13 -20 -1 -4 -21 -29 -45
-56 -70 -77 -65 -86 53 -86 116 1 109 -4 231 148 l34 42 317 0 318 0 18 -67
c19 -75 31 -104 48 -115 6 -4 53 -8 104 -8 68 0 94 4 98 13 5 15 -1 44 -46
202 -18 61 -44 157 -60 215 -51 189 -117 413 -132 454 -19 47 -62 66 -148 65
-41 0 -89 -5 -106 -10z m83 -239 c7 -25 30 -110 53 -189 22 -80 36 -149 32
-153 -5 -5 -102 -7 -217 -6 -218 3 -235 7 -198 45 10 10 46 52 78 93 33 41 62
77 66 80 3 3 21 25 40 50 70 93 104 130 119 127 8 -1 20 -22 27 -47z" />
        <path d="M5893 2122 c-32 -44 -180 -228 -205 -256 -10 -11 -18 -23 -18 -28 0
-4 79 -8 176 -8 l177 0 -7 43 c-4 23 -15 71 -26 107 -10 36 -26 91 -35 123 -9
31 -21 57 -26 57 -5 0 -21 -17 -36 -38z m50 -84 c23 -79 46 -171 47 -180 0 -5
-61 -8 -135 -8 -74 0 -135 3 -135 6 0 6 51 71 105 135 16 19 43 52 59 72 15
20 31 37 35 37 4 0 15 -28 24 -62z" />
        <path d="M7786 2384 c-64 -34 -141 -88 -191 -135 l-39 -38 17 -36 c25 -52 22
-91 -7 -110 -27 -18 -48 -12 -80 24 -14 16 -23 18 -37 10 -24 -12 -24 -25 1
-51 38 -41 74 -58 120 -57 l45 0 -32 16 c-36 18 -43 33 -17 33 46 0 69 82 39
139 -13 26 -12 30 6 50 25 26 35 26 56 1 25 -29 35 -24 28 14 -10 50 0 70 48
96 105 58 141 95 43 44z" />
        <path d="M8300 2279 c-30 -5 -91 -12 -135 -15 -96 -8 -83 -15 66 -38 58 -8
143 -27 190 -42 299 -93 492 -207 689 -404 182 -182 294 -366 356 -586 26 -91
29 -113 29 -274 0 -155 -3 -185 -24 -260 -27 -95 -85 -228 -134 -305 -33 -53
-128 -176 -160 -208 -10 -10 -16 -21 -13 -24 9 -10 257 239 314 315 215 290
263 604 147 958 -31 93 -76 207 -86 218 -5 6 -9 18 -9 28 0 10 -4 18 -9 18 -5
0 -15 15 -22 33 -7 17 -35 65 -62 105 -27 40 -47 75 -45 77 7 7 182 -81 258
-130 41 -26 98 -66 125 -88 71 -57 266 -254 303 -306 50 -69 38 -23 -27 104
-218 423 -522 665 -975 776 -202 49 -604 74 -776 48z" />
        <path d="M7055 1934 c-180 -186 -231 -251 -278 -344 -29 -60 -32 -73 -32 -160
0 -89 2 -99 34 -158 31 -57 105 -142 123 -142 5 0 8 9 8 21 0 39 63 139 120
192 181 168 497 223 787 138 88 -26 238 -107 300 -164 33 -30 39 -14 14 38
-11 24 -21 47 -21 50 0 3 -21 37 -46 75 -46 70 -156 180 -180 180 -7 0 -14 3
-16 8 -6 13 -92 51 -153 68 -33 8 -111 18 -173 21 -83 4 -110 9 -102 17 7 7
74 11 195 11 101 0 180 4 176 8 -16 16 -176 67 -248 79 -84 14 -204 0 -279
-33 -25 -10 -46 -19 -47 -19 -1 0 -2 58 -2 129 0 78 -4 134 -10 140 -8 8 -59
-39 -170 -155z m90 -54 c7 -12 -42 -60 -61 -60 -20 0 -17 23 6 48 22 23 45 28
55 12z" />
        <path d="M8470 1874 c41 -20 77 -40 78 -45 2 -5 8 -9 14 -9 8 0 62 -34 113
-71 72 -53 213 -196 262 -268 18 -25 36 -50 41 -56 12 -15 92 -156 92 -162 0
-4 11 -29 24 -57 79 -168 134 -400 159 -676 16 -163 19 -161 78 66 39 149 42
170 46 324 6 203 -12 292 -87 445 -130 266 -372 433 -761 525 -130 30 -146 26
-59 -16z" />
        <path d="M8215 1809 c94 -70 276 -255 353 -358 34 -46 60 -86 57 -89 -3 -3
-31 17 -62 45 -32 27 -83 67 -113 88 -30 21 -62 44 -71 51 -8 8 -19 14 -22 14
-10 0 -9 -38 1 -42 12 -4 86 -182 116 -275 81 -251 68 -491 -35 -698 -60 -122
-112 -193 -226 -308 -96 -97 -92 -99 52 -18 181 101 328 245 393 384 52 110
66 192 58 344 -6 133 -6 133 14 121 29 -19 40 -68 40 -189 0 -235 -75 -476
-195 -623 -25 -31 -45 -58 -45 -61 0 -3 -15 -19 -32 -36 l-33 -31 35 19 c56
29 232 211 269 277 50 90 98 224 111 312 20 139 18 135 47 81 15 -26 31 -47
36 -47 19 0 -14 300 -44 400 -14 46 -33 89 -76 175 -100 200 -290 360 -558
470 -136 55 -150 54 -70 -6z" />
        <path d="M7670 1461 c0 -3 23 -19 51 -36 58 -34 181 -161 220 -226 85 -143
123 -346 100 -525 -17 -126 -58 -292 -94 -376 -30 -72 1 -40 88 90 200 296
242 584 115 790 -45 74 -141 156 -235 202 -108 52 -245 98 -245 81z" />
        <path d="M3585 1112 c-3 -3 -5 -11 -5 -19 0 -9 14 -13 46 -13 l47 0 -7 -42
c-20 -117 -46 -292 -46 -304 0 -8 9 -14 19 -14 16 0 21 10 27 48 4 26 16 106
28 177 l21 130 48 3 c36 2 47 7 47 20 0 15 -14 17 -110 18 -60 1 -112 -1 -115
-4z" />
        <path d="M4220 1008 c-36 -61 -89 -151 -117 -200 -49 -82 -51 -88 -30 -88 16
0 30 15 52 53 l31 52 86 3 87 3 12 -43 c6 -24 13 -49 15 -55 2 -7 15 -13 28
-13 23 0 24 3 16 28 -10 31 -74 265 -90 330 -6 23 -14 42 -18 42 -4 -1 -36
-51 -72 -112z m82 -65 c9 -34 13 -65 10 -68 -7 -6 -122 -7 -122 0 0 5 33 65
62 113 11 19 24 30 28 25 4 -4 14 -36 22 -70z" />
        <path d="M4516 1099 c-4 -20 -31 -197 -52 -341 -5 -33 -3 -38 14 -38 22 0 20
-6 48 175 9 61 20 113 23 117 4 4 33 -27 66 -70 33 -42 89 -113 124 -156 l65
-79 12 69 c7 38 19 116 28 174 9 58 19 117 22 133 5 22 2 27 -15 27 -21 0 -41
-48 -41 -99 0 -21 -6 -63 -27 -170 -4 -23 -4 -23 -25 -5 -11 11 -41 46 -66 79
-25 33 -49 62 -52 65 -3 3 -21 25 -40 50 -19 25 -45 56 -57 69 l-22 24 -5 -24z" />
        <path d="M5014 1110 c-11 -4 -33 -22 -47 -40 -37 -43 -36 -84 4 -121 17 -16
35 -29 40 -29 5 0 25 -10 44 -22 29 -19 35 -29 35 -59 0 -82 -119 -117 -152
-44 -12 27 -48 35 -48 10 0 -26 22 -63 44 -74 75 -39 172 6 197 90 17 55 2 80
-73 124 -71 42 -80 52 -72 80 17 56 78 73 120 34 23 -22 44 -19 44 6 0 39 -83
67 -136 45z" />
        <path d="M5256 1106 c-7 -6 -21 -60 -30 -126 -10 -63 -21 -137 -27 -163 -14
-74 -12 -97 9 -97 15 0 21 13 30 64 7 35 12 72 12 84 0 16 9 21 55 27 45 5 63
13 89 40 54 53 56 126 4 158 -30 19 -124 28 -142 13z m120 -47 c18 -15 18 -69
-1 -96 -15 -21 -85 -41 -103 -29 -8 5 1 101 13 135 6 16 68 9 91 -10z" />
        <path d="M5605 1100 c-49 -24 -83 -54 -115 -100 -34 -47 -36 -170 -5 -211 70
-93 203 -99 302 -14 149 127 85 347 -100 345 -23 -1 -60 -10 -82 -20z m155
-37 c32 -19 70 -80 70 -113 0 -106 -90 -194 -198 -193 -58 0 -90 21 -119 77
-20 39 -11 116 18 158 54 76 164 110 229 71z" />
        <path d="M6221 1112 c-6 -2 -11 -10 -11 -18 0 -10 12 -14 39 -14 22 0 42 -4
45 -8 5 -8 2 -29 -29 -226 -19 -124 -19 -126 4 -126 16 0 21 18 41 148 34 221
28 206 83 210 33 2 47 7 47 18 0 7 -6 15 -12 15 -31 4 -197 4 -207 1z" />
        <path d="M3856 1054 c-4 -33 -16 -109 -27 -171 -25 -144 -25 -163 1 -163 14 0
20 7 20 21 0 40 23 149 32 149 4 0 27 -38 50 -85 38 -77 45 -85 71 -85 l28 0
-32 58 c-18 31 -35 62 -39 67 -4 6 -10 20 -14 31 -5 17 -2 23 16 28 74 20 114
122 69 177 -16 20 -30 24 -94 27 l-74 4 -7 -58z m136 -1 c23 -21 23 -40 -1
-79 -15 -25 -29 -34 -61 -39 -23 -4 -43 -5 -45 -3 -5 5 14 128 22 141 8 13 63
0 85 -20z" />
        <path d="M5966 1099 c-8 -22 -56 -327 -56 -354 0 -18 6 -25 18 -25 16 0 21 14
31 85 7 47 17 85 21 85 5 0 28 -38 52 -85 35 -70 47 -85 66 -85 28 0 24 18
-18 90 -42 71 -45 87 -18 93 68 17 110 125 70 176 -16 20 -31 24 -90 29 -55 4
-73 2 -76 -9z m127 -47 c42 -37 -1 -110 -71 -117 l-43 -4 7 52 c11 87 18 98
56 90 18 -3 41 -13 51 -21z" />
    </g>
</svg>