<svg width="1063" height="401" viewBox="0 0 1063 401" fill="none" xmlns="http://www.w3.org/2000/svg">
<path d="M2.5 71.5539C2.5 60.9563 10.2223 51.9393 20.6939 50.3096L320.909 3.58897C323.267 3.22203 325.669 3.25018 328.018 3.67226L600.489 52.6395C603.821 53.2384 607.237 53.1931 610.553 52.5063L844.548 4.02732C847.622 3.39047 850.798 3.43448 853.853 4.15627L1043.94 49.0666C1053.65 51.3589 1060.5 60.0208 1060.5 69.9905V336.437C1060.5 346.64 1053.33 355.438 1043.33 357.496L853.286 396.617C850.6 397.17 847.832 397.204 845.132 396.716L609.924 354.258C607.015 353.733 604.038 353.698 601.117 354.156L327.577 396.988C325.519 397.31 323.426 397.331 321.362 397.052L21.1112 356.34C10.451 354.894 2.5 345.792 2.5 335.035V71.5539Z" fill="#D9D9D9" stroke="black" stroke-width="5"/>
<path d="M323.5 3.9873C323.5 3.9873 300 75 300 199.5C300 324 325.5 399.987 325.5 399.987" stroke="black" stroke-width="5"/>
<path d="M128.5 126.176C128.5 121.016 132.198 116.652 137.264 115.849C168.479 110.902 258.473 96.9852 300.337 94.1283C325.759 92.3934 382.665 94.2523 434.744 99.6797C460.772 102.392 485.492 105.986 504.406 110.44C513.872 112.669 521.791 115.093 527.665 117.688C530.601 118.986 532.958 120.296 534.721 121.602C536.501 122.92 537.539 124.133 538.039 125.186C539.377 128.003 540.577 132.37 541.593 138.047C542.602 143.681 543.404 150.445 544.012 157.959C545.228 172.983 545.657 190.875 545.45 208.47C545.243 226.063 544.4 243.308 543.081 257.034C542.421 263.901 541.646 269.851 540.779 274.507C539.89 279.284 538.961 282.357 538.144 283.744C538.022 283.95 537.42 284.562 535.656 285.381C534.01 286.146 531.721 286.925 528.809 287.704C522.995 289.257 515.014 290.722 505.428 292.087C486.275 294.815 461 297.106 434.474 298.947C381.425 302.629 323.587 304.5 300.166 304.5C261.729 304.5 168.878 289.636 137.142 284.358C132.13 283.525 128.5 279.193 128.5 274.068V126.176Z" stroke="black" stroke-width="5"/>
<line x1="0.82343" y1="76.6395" x2="129.823" y2="121.639" stroke="black" stroke-width="5"/>
<line y1="-2.5" x2="136.624" y2="-2.5" transform="matrix(-0.9442 0.329372 0.329372 0.9442 133 281)" stroke="black" stroke-width="5"/>
<path d="M616.5 54L630.5 113V291L616.5 352" stroke="black" stroke-width="5"/>
<path d="M540.987 123.5L630.5 111.5L931.987 121.5" stroke="black" stroke-width="5"/>
<path d="M540.059 284L629.572 296L931.059 286" stroke="black" stroke-width="5"/>
<line x1="929.938" y1="122.586" x2="988.938" y2="36.5857" stroke="black" stroke-width="5"/>
<line y1="-2.5" x2="101.607" y2="-2.5" transform="matrix(-0.59051 -0.80703 -0.80703 0.59051 988 369)" stroke="black" stroke-width="5"/>
<path d="M932.5 118.985C932.5 118.985 926.663 170.401 927 204C927.325 236.471 933.5 286.985 933.5 286.985" stroke="black" stroke-width="5"/>
<path d="M654.01 110C654.01 110 644.21 168.132 644.571 205.76C644.92 242.124 655.13 298.142 655.13 298.142" stroke="black" stroke-width="5"/>
<path d="M325 7L614.5 56L628.5 112V294.5L614.5 350L325 395C325 395 303.088 277.859 303 202C302.839 62.5 325 7 325 7Z" fill="black" fill-opacity="0.28"/>
</svg>
