<!-- <svg width="60" height="60" viewBox="0 0 609 631" fill="none" xmlns="http://www.w3.org/2000/svg">
    <rect x="542.5" y="2.5" width="536" height="427" rx="23.5" transform="rotate(90 542.5 2.5)" fill="#B99378"
        stroke="black" stroke-width="5" />
    <rect x="606.5" y="61.5" width="398" height="64" transform="rotate(90 606.5 61.5)" fill="#B99378" stroke="black"
        stroke-width="5" />
    <path d="M114.5 61.5L114.5 459.5H2.5L2.5 83C2.5 71.1259 12.1259 61.5 24 61.5L114.5 61.5Z" fill="#B99378"
        stroke="black" stroke-width="5" />
    <path
        d="M59 320.5C35.9404 320.5 17.5 302.903 17.5 281.5C17.5 260.097 35.9404 242.5 59 242.5C82.0596 242.5 100.5 260.097 100.5 281.5C100.5 302.903 82.0596 320.5 59 320.5Z"
        fill="#54463B" stroke="black" stroke-width="5" />
    <path
        d="M59 225.5C35.9404 225.5 17.5 207.903 17.5 186.5C17.5 165.097 35.9404 147.5 59 147.5C82.0596 147.5 100.5 165.097 100.5 186.5C100.5 207.903 82.0596 225.5 59 225.5Z"
        fill="#54463B" stroke="black" stroke-width="5" />
    <circle cx="58.5" cy="105.5" r="24" transform="rotate(90 58.5 105.5)" fill="#54463B" stroke="black"
        stroke-width="5" />
    <path d="M461 2L428 421.567L461 537.135" stroke="black" stroke-width="5" />
    <path d="M190 2L223 421.567L190 537.135" stroke="black" stroke-width="5" />
    <path d="M113 323C113 323 257.005 342.503 325.5 341.99C393.996 341.477 545 323 545 323" stroke="black"
        stroke-width="5" />
    <line x1="450" y1="172.5" x2="204" y2="172.5" stroke="black" stroke-width="5" />
    <line y1="-2.5" x2="236.247" y2="-2.5" transform="matrix(-0.999964 0.00846573 -0.00806743 -0.999967 442.19 232)"
        stroke="black" stroke-width="5" />
    <line y1="-2.5" x2="223.557" y2="-2.5" transform="matrix(-0.999961 0.00879271 -0.00837902 -0.999965 437.31 295)"
        stroke="black" stroke-width="5" />
    <line x1="431.023" y1="370.5" x2="218.023" y2="372.491" stroke="black" stroke-width="5" />
    <line x1="428.037" y1="392.5" x2="221.037" y2="395.529" stroke="black" stroke-width="5" />
    <line x1="429.036" y1="415.5" x2="223.036" y2="418.5" stroke="black" stroke-width="5" />
    <path
        d="M531.193 455.577C539.84 456.507 545.5 464.556 545.5 474.056V560.006C545.5 568.41 541.056 576.019 533.635 579.6C504.488 593.663 429.172 624.927 330.422 628.001C230.261 631.119 154.233 595.41 126.139 579.885C119.412 576.168 115.5 568.968 115.5 561.107V473.801C115.5 464.378 121.103 456.639 129.494 456.334C143.059 455.841 164.399 459.789 187.765 482.301C229.524 522.531 290.915 528.453 330.56 527.499C350.626 527.017 379.005 521.576 406.546 512.326C434.054 503.088 461.077 489.934 478.213 473.822C497.164 456.001 517.533 454.107 531.193 455.577Z"
        fill="#644631" stroke="black" stroke-width="5" />
</svg> -->

<svg width="60" height="60" viewBox="0 0 656 631" fill="none" xmlns="http://www.w3.org/2000/svg">
    <rect x="542.5" y="2.5" width="536" height="427" rx="23.5" transform="rotate(90 542.5 2.5)" fill="#B99378"
        stroke="black" stroke-width="5" />
    <path d="M114.5 61.5L114.5 459.5H2.5L2.5 83C2.5 71.1259 12.1259 61.5 24 61.5L114.5 61.5Z" fill="#B99378"
        stroke="black" stroke-width="5" />
    <path
        d="M59 320.5C35.9404 320.5 17.5 302.903 17.5 281.5C17.5 260.097 35.9404 242.5 59 242.5C82.0596 242.5 100.5 260.097 100.5 281.5C100.5 302.903 82.0596 320.5 59 320.5Z"
        fill="#54463B" stroke="black" stroke-width="5" />
    <path
        d="M59 225.5C35.9404 225.5 17.5 207.903 17.5 186.5C17.5 165.097 35.9404 147.5 59 147.5C82.0596 147.5 100.5 165.097 100.5 186.5C100.5 207.903 82.0596 225.5 59 225.5Z"
        fill="#54463B" stroke="black" stroke-width="5" />
    <circle cx="58.5" cy="105.5" r="24" transform="rotate(90 58.5 105.5)" fill="#54463B" stroke="black"
        stroke-width="5" />
    <path d="M633 41.5C644.322 41.5 653.5 50.6782 653.5 62L653.5 439.5H541.5L541.5 41.5L633 41.5Z" fill="#B99378"
        stroke="black" stroke-width="5" />
    <path
        d="M598 323.5C574.94 323.5 556.5 305.903 556.5 284.5C556.5 263.097 574.94 245.5 598 245.5C621.06 245.5 639.5 263.097 639.5 284.5C639.5 305.903 621.06 323.5 598 323.5Z"
        fill="#54463B" stroke="black" stroke-width="5" />
    <path
        d="M598 227.5C574.94 227.5 556.5 209.903 556.5 188.5C556.5 167.097 574.94 149.5 598 149.5C621.06 149.5 639.5 167.097 639.5 188.5C639.5 209.903 621.06 227.5 598 227.5Z"
        fill="#54463B" stroke="black" stroke-width="5" />
    <circle cx="597.5" cy="107.5" r="24" transform="rotate(90 597.5 107.5)" fill="#54463B" stroke="black"
        stroke-width="5" />
    <path d="M461 2L428 421.567L461 537.135" stroke="black" stroke-width="5" />
    <path d="M190 2L223 421.567L190 537.135" stroke="black" stroke-width="5" />
    <path d="M113 323C113 323 257.005 342.503 325.5 341.99C393.996 341.477 545 323 545 323" stroke="black"
        stroke-width="5" />
    <line x1="450" y1="172.5" x2="204" y2="172.5" stroke="black" stroke-width="5" />
    <line y1="-2.5" x2="236.247" y2="-2.5" transform="matrix(-0.999964 0.00846573 -0.00806743 -0.999967 442.19 232)"
        stroke="black" stroke-width="5" />
    <line y1="-2.5" x2="223.557" y2="-2.5" transform="matrix(-0.999961 0.00879271 -0.00837902 -0.999965 437.31 295)"
        stroke="black" stroke-width="5" />
    <line x1="431.023" y1="370.5" x2="218.023" y2="372.491" stroke="black" stroke-width="5" />
    <line x1="428.037" y1="392.5" x2="221.037" y2="395.529" stroke="black" stroke-width="5" />
    <line x1="429.036" y1="415.5" x2="223.036" y2="418.5" stroke="black" stroke-width="5" />
    <path
        d="M531.193 455.577C539.84 456.507 545.5 464.556 545.5 474.056V560.006C545.5 568.41 541.056 576.019 533.635 579.6C504.488 593.663 429.172 624.927 330.422 628.001C230.261 631.119 154.233 595.41 126.139 579.885C119.412 576.168 115.5 568.968 115.5 561.107V473.801C115.5 464.378 121.103 456.639 129.494 456.334C143.059 455.841 164.399 459.789 187.765 482.301C229.524 522.531 290.915 528.453 330.56 527.499C350.626 527.017 379.005 521.576 406.546 512.326C434.054 503.088 461.077 489.934 478.213 473.822C497.164 456.001 517.533 454.107 531.193 455.577Z"
        fill="#644631" stroke="black" stroke-width="5" />
</svg>