<svg width="60" height="120" viewBox="0 0 401 1063" fill="none" xmlns="http://www.w3.org/2000/svg">
<path d="M71.0539 1060.5C60.4563 1060.5 51.4393 1052.78 49.8096 1042.31L3.08897 742.091C2.72203 739.733 2.75018 737.331 3.17226 734.982L52.1395 462.511C52.7384 459.179 52.6931 455.763 52.0063 452.447L3.52732 218.452C2.89047 215.378 2.93448 212.202 3.65627 209.147L48.5666 19.0566C50.8589 9.35388 59.5208 2.5 69.4905 2.5H335.937C346.14 2.5 354.938 9.67151 356.996 19.6652L396.117 209.714C396.67 212.4 396.704 215.168 396.216 217.868L353.758 453.076C353.233 455.985 353.198 458.962 353.656 461.883L396.488 735.423C396.81 737.481 396.831 739.574 396.552 741.638L355.84 1041.89C354.394 1052.55 345.292 1060.5 334.535 1060.5H71.0539Z" fill="#644631" stroke="black" stroke-width="5"/>
<path d="M66.6359 1060C60.2196 1060 54.7629 1055.32 53.7871 1048.98L5.99988 738.428L54.9999 446.135L111 432H293.5L349 446.135L394 738.428L352.129 1044.44C350.909 1053.36 343.293 1060 334.295 1060H66.6359Z" fill="#B99378"/>
<path d="M3.4873 739.5C3.4873 739.5 74.5 763 199 763C323.5 763 399.487 737.5 399.487 737.5" stroke="black" stroke-width="5"/>
<path d="M125.676 934.5C120.516 934.5 116.152 930.802 115.349 925.736C110.402 894.521 96.4852 804.527 93.6283 762.663C91.8934 737.241 93.7523 680.335 99.1797 628.256C101.892 602.228 105.486 577.508 109.94 558.594C112.169 549.128 114.593 541.209 117.188 535.335C118.486 532.399 119.796 530.042 121.102 528.279C122.42 526.499 123.633 525.461 124.686 524.961C127.503 523.623 131.87 522.423 137.547 521.407C143.181 520.398 149.945 519.596 157.459 518.988C172.483 517.772 190.375 517.343 207.97 517.55C225.563 517.757 242.808 518.6 256.534 519.919C263.401 520.579 269.351 521.354 274.007 522.221C278.784 523.11 281.857 524.039 283.244 524.856C283.45 524.978 284.062 525.58 284.881 527.344C285.646 528.99 286.425 531.279 287.204 534.191C288.757 540.005 290.222 547.986 291.587 557.572C294.315 576.725 296.606 602 298.447 628.526C302.129 681.575 304 739.413 304 762.834C304 801.271 289.136 894.122 283.858 925.858C283.025 930.87 278.693 934.5 273.568 934.5H125.676Z" stroke="black" stroke-width="5"/>
<line x1="76.1395" y1="1062.18" x2="121.139" y2="933.177" stroke="black" stroke-width="5"/>
<line y1="-2.5" x2="136.624" y2="-2.5" transform="matrix(0.329372 0.9442 0.9442 -0.329372 280.5 930)" stroke="black" stroke-width="5"/>
<path d="M53.5 446.5L112.5 432.5L290.5 432.5L351.5 446.5" stroke="black" stroke-width="5"/>
<path d="M123 522.012L111 432.5L121 131.012" stroke="black" stroke-width="5"/>
<path d="M283.5 522.941L295.5 433.428L285.5 131.941" stroke="black" stroke-width="5"/>
<line x1="122.086" y1="133.062" x2="36.0857" y2="74.0615" stroke="black" stroke-width="5"/>
<line y1="-2.5" x2="101.607" y2="-2.5" transform="matrix(-0.80703 0.59051 0.59051 0.80703 368.5 75)" stroke="black" stroke-width="5"/>
<path d="M118.485 130.5C118.485 130.5 169.901 136.337 203.5 136C235.971 135.675 286.485 129.5 286.485 129.5" stroke="black" stroke-width="5"/>
<path d="M109.5 408.99C109.5 408.99 167.632 418.79 205.26 418.429C241.624 418.08 297.642 407.87 297.642 407.87" stroke="black" stroke-width="5"/>
</svg>
